<?xml version="1.0" encoding="utf-8"?>
<!-- Generator: Adobe Illustrator 23.0.0, SVG Export Plug-In . SVG Version: 6.00 Build 0)  -->
<svg version="1.1" id="Calque_1" xmlns="http://www.w3.org/2000/svg" xmlns:xlink="http://www.w3.org/1999/xlink" x="0px" y="0px"
	 viewBox="0 0 277.1 75.5" style="enable-background:new 0 0 277.1 75.5;" xml:space="preserve">
<style type="text/css">
	.st0{fill:#F2EBD6;}
</style>
<g>
	<g>
		<g>
			<path class="st0" d="M270.4,9.7c3.2,3,4.7,7.6,4.7,13.5v23.6h-9.6V24.5c0-3.7-0.9-6.3-2.5-8.2c-1.6-1.8-4.2-2.8-7.2-2.8
				c-3.5,0-6.3,1-8.5,3.2c-2,2.1-3,5.2-3,9.2v20.8h-9.6v-41h9.2V11c1.6-1.9,3.7-3.3,6.1-4.3c2.4-1,5.2-1.5,8.2-1.5
				C263.1,5.2,267.3,6.7,270.4,9.7z"/>
		</g>
		<g>
			<path class="st0" d="M12.6,44.4c-3.3-1.8-5.9-4.3-7.8-7.6C2.9,33.7,2,30,2,25.9c0-4,0.9-7.7,2.8-10.9s4.5-5.7,7.8-7.4
				c3.4-1.8,7.1-2.6,11.2-2.6c4.2,0,7.9,0.9,11.4,2.6c3.4,1.8,5.9,4.3,7.8,7.4s2.8,6.8,2.8,10.9c0,4-0.9,7.7-2.8,11
				c-1.9,3.3-4.5,5.7-7.8,7.6c-3.3,1.8-7.1,2.6-11.4,2.6C19.8,47.1,16,46.2,12.6,44.4z M32.7,35.3c2.3-2.4,3.5-5.4,3.5-9.3
				c0-3.9-1.1-6.9-3.5-9.3c-2.3-2.4-5.3-3.5-8.8-3.5s-6.4,1.1-8.7,3.5c-2.3,2.4-3.4,5.4-3.4,9.3c0,3.9,1.1,6.9,3.4,9.3
				s5.2,3.5,8.7,3.5C27.5,38.9,30.4,37.6,32.7,35.3z"/>
			<path class="st0" d="M79.4,4.9v9.2c-0.8-0.1-1.5-0.3-2.3-0.3c-3.8,0-6.7,1.1-8.8,3.3c-2.1,2.1-3.2,5.3-3.2,9.5v19.9h-9.6V5.3h9.2
				v6.1C67.5,7.1,72.4,4.9,79.4,4.9z"/>
			<path class="st0" d="M126.2,29H93.9c0.5,3,2,5.4,4.4,7.2c2.4,1.8,5.3,2.6,9,2.6c4.5,0,8.2-1.5,11.2-4.4l5.2,5.9
				c-1.9,2.3-4.2,3.9-7.1,5c-2.8,1.1-6.1,1.6-9.6,1.6c-4.5,0-8.5-0.9-12-2.6c-3.4-1.8-6.1-4.3-7.9-7.6c-1.9-3.2-2.8-6.8-2.8-11
				c0-4,0.9-7.6,2.8-10.9c1.8-3.2,4.4-5.7,7.6-7.6c3.3-1.8,6.9-2.6,11-2.6c4,0,7.6,0.9,10.7,2.6c3.2,1.8,5.7,4.3,7.4,7.4
				s2.6,6.9,2.6,11.1C126.3,26.9,126.3,27.8,126.2,29z M97.7,15.4c-2.1,1.8-3.4,4.3-3.9,7.3h23.3c-0.4-3-1.6-5.4-3.8-7.2
				c-2.1-1.9-4.8-2.8-7.8-2.8C102.5,12.6,99.8,13.5,97.7,15.4z"/>
			<path class="st0" d="M173.8,5.3l-17.7,41.3h-10L128.5,5.3h10.1l12.7,30.5l13.2-30.5H173.8z"/>
		</g>
		<g>
			<path class="st0" d="M203.9,46.8l-16-3.4l-9-13.8l3.4-16l13.8-9l16,3.4l9,13.8l-3.4,16L203.9,46.8z M188.6,42.4l15,3.2l12.9-8.3
				l3.2-15l-8.3-12.9l-15-3.3l-12.9,8.3l-3.2,15L188.6,42.4z"/>
			<path class="st0" d="M202.9,47.2L188.1,40l-5.3-15.5L190,9.7l15.5-5.3l14.8,7.2l5.3,15.5l-7.2,14.8L202.9,47.2z M189.1,39.1
				l13.8,6.7l14.5-5l6.7-13.8l-5-14.5l-13.8-6.7l-14.5,5l-6.7,13.8L189.1,39.1z"/>
		</g>
	</g>
	<g>
		<path class="st0" d="M66.6,59.3l3.5,9l3.7-9H76l-5.8,13.9l-5.7-13.9H66.6z"/>
		<path class="st0" d="M84.9,68.5h-5.8c0,0.6,0.3,1.3,0.6,1.6c0.4,0.4,0.9,0.6,1.5,0.6c0.5,0,0.9-0.1,1.1-0.4c0.3-0.3,0.6-0.6,1-1.3
			L85,70c-0.3,0.4-0.5,0.8-0.8,1.1c-0.3,0.3-0.5,0.5-0.9,0.8c-0.3,0.3-0.6,0.4-1,0.4c-0.4,0.1-0.8,0.1-1.1,0.1
			c-1.3,0-2.1-0.4-2.9-1.1c-0.8-0.8-1.1-1.8-1.1-3.2c0-1.3,0.4-2.3,1-3.2c0.8-0.8,1.6-1.1,2.9-1.1s2.1,0.4,2.9,1.1
			c0.6,0.8,1,1.8,1,3.2L84.9,68.5z M83,67c-0.3-1-0.9-1.5-1.9-1.5c-0.3,0-0.5,0-0.6,0.1c-0.3,0.1-0.4,0.1-0.5,0.3
			c-0.1,0.1-0.3,0.3-0.4,0.5c-0.1,0.1-0.3,0.4-0.3,0.6H83z"/>
		<path class="st0" d="M88.3,64.1h1.9v0.8c0.6-0.6,1.4-1,2.3-1c1,0,1.6,0.3,2.3,0.9c0.5,0.5,0.6,1.4,0.6,2.5v5h-1.9v-4.5
			c0-0.8-0.1-1.4-0.4-1.6c-0.3-0.3-0.6-0.5-1.1-0.5c-0.6,0-1,0.3-1.4,0.6c-0.3,0.4-0.4,1.1-0.4,2.1v3.9h-1.9V64.1z"/>
		<path class="st0" d="M100.9,65.8v6.4h-1.9v-6.4h-0.8V64h0.8v-3h1.9v3h1.5v1.8H100.9z"/>
		<path class="st0" d="M106.9,64.1v4.7c0,1.4,0.5,2,1.6,2c1,0,1.6-0.6,1.6-2v-4.7h1.9v4.7c0,0.6-0.1,1.3-0.3,1.6
			c-0.1,0.4-0.4,0.8-0.8,1.1c-0.6,0.5-1.4,0.9-2.4,0.9s-1.8-0.3-2.4-0.9c-0.4-0.4-0.6-0.8-0.9-1.1c-0.1-0.4-0.3-0.9-0.3-1.6v-4.7
			H106.9z"/>
		<path class="st0" d="M115.6,64.1h1.9v0.8c0.4-0.4,0.6-0.6,0.9-0.8c0.3-0.1,0.6-0.3,1-0.3c0.5,0,1,0.1,1.5,0.5l-0.9,1.8
			c-0.4-0.3-0.8-0.4-1-0.4c-1,0-1.5,0.8-1.5,2.3v4.2h-1.9V64.1z"/>
		<path class="st0" d="M130.6,68.5h-5.8c0,0.6,0.3,1.3,0.6,1.6c0.4,0.4,0.9,0.6,1.5,0.6c0.5,0,0.9-0.1,1.1-0.4
			c0.3-0.3,0.6-0.6,1-1.3l1.6,0.9c-0.3,0.4-0.5,0.8-0.8,1.1c-0.3,0.3-0.5,0.5-0.9,0.8c-0.3,0.3-0.6,0.4-1,0.4
			c-0.4,0.1-0.8,0.1-1.1,0.1c-1.3,0-2.1-0.4-2.9-1.1c-0.8-0.8-1.1-1.8-1.1-3.2c0-1.3,0.4-2.3,1-3.2c0.8-0.8,1.6-1.1,2.9-1.1
			c1.3,0,2.1,0.4,2.9,1.1c0.6,0.8,1,1.8,1,3.2L130.6,68.5z M128.7,67c-0.3-1-0.9-1.5-1.9-1.5c-0.3,0-0.5,0-0.6,0.1
			c-0.3,0.1-0.4,0.1-0.5,0.3c-0.1,0.1-0.3,0.3-0.4,0.5c-0.1,0.1-0.3,0.4-0.3,0.6H128.7z"/>
		<path class="st0" d="M142.8,67v5.3h-1.9v-13h2.3c1.1,0,1.9,0.1,2.4,0.3c0.5,0.1,1,0.4,1.5,0.9c0.8,0.8,1.1,1.6,1.1,2.8
			c0,1.1-0.4,2.1-1.1,2.8c-0.8,0.6-1.9,1-3.2,1C144,67,142.8,67,142.8,67z M142.8,65.1h0.8c1.8,0,2.6-0.6,2.6-2c0-1.4-0.9-2-2.8-2
			h-0.6L142.8,65.1L142.8,65.1z"/>
		<path class="st0" d="M156.6,64.1h1.9v8.2h-1.9v-0.9c-0.8,0.8-1.6,1.1-2.5,1.1c-1.1,0-2-0.4-2.8-1.3c-0.8-0.9-1.1-1.9-1.1-3.2
			s0.4-2.3,1.1-3c0.8-0.8,1.6-1.3,2.8-1.3c1,0,1.8,0.4,2.5,1.1V64.1z M152.2,68.2c0,0.8,0.3,1.4,0.6,1.9c0.4,0.5,1,0.8,1.6,0.8
			c0.8,0,1.3-0.3,1.6-0.8c0.4-0.5,0.6-1.1,0.6-1.9c0-0.8-0.3-1.4-0.6-1.9c-0.4-0.5-1-0.8-1.6-0.8c-0.6,0-1.1,0.3-1.6,0.8
			C152.4,66.8,152.2,67.4,152.2,68.2z"/>
		<path class="st0" d="M162.1,64.1h1.9v0.8c0.4-0.4,0.6-0.6,0.9-0.8c0.3-0.1,0.6-0.3,1-0.3c0.5,0,1,0.1,1.5,0.5l-0.9,1.8
			c-0.4-0.3-0.8-0.4-1-0.4c-1,0-1.5,0.8-1.5,2.3v4.2h-1.9V64.1z"/>
		<path class="st0" d="M172.5,65.8v6.4h-1.9v-6.4h-0.8V64h0.8v-3h1.9v3h1.5v1.8H172.5z"/>
		<path class="st0" d="M176.5,64.1h1.9v0.8c0.6-0.6,1.4-1,2.3-1c1,0,1.6,0.3,2.3,0.9c0.5,0.5,0.6,1.4,0.6,2.5v5h-1.9v-4.5
			c0-0.8-0.1-1.4-0.4-1.6c-0.3-0.3-0.6-0.5-1.1-0.5c-0.6,0-1,0.3-1.4,0.6c-0.3,0.4-0.4,1.1-0.4,2.1v3.9h-1.9V64.1z"/>
		<path class="st0" d="M194.6,68.5h-5.8c0,0.6,0.3,1.3,0.6,1.6c0.4,0.4,0.9,0.6,1.5,0.6c0.5,0,0.9-0.1,1.1-0.4
			c0.3-0.3,0.6-0.6,1-1.3l1.6,0.9c-0.3,0.4-0.5,0.8-0.8,1.1c-0.3,0.3-0.5,0.5-0.9,0.8c-0.3,0.3-0.6,0.4-1,0.4
			c-0.4,0.1-0.8,0.1-1.1,0.1c-1.3,0-2.1-0.4-2.9-1.1c-0.8-0.8-1.1-1.8-1.1-3.2c0-1.3,0.4-2.3,1-3.2c0.8-0.8,1.6-1.1,2.9-1.1
			s2.1,0.4,2.9,1.1c0.6,0.8,1,1.8,1,3.2L194.6,68.5z M192.7,67c-0.3-1-0.9-1.5-1.9-1.5c-0.3,0-0.5,0-0.6,0.1
			c-0.3,0.1-0.4,0.1-0.5,0.3c-0.1,0.1-0.3,0.3-0.4,0.5c-0.1,0.1-0.3,0.4-0.3,0.6H192.7z"/>
		<path class="st0" d="M198,64.1h1.9v0.8c0.4-0.4,0.6-0.6,0.9-0.8c0.3-0.1,0.6-0.3,1-0.3c0.5,0,1,0.1,1.5,0.5l-0.9,1.8
			c-0.4-0.3-0.8-0.4-1-0.4c-1,0-1.5,0.8-1.5,2.3v4.2H198V64.1z"/>
		<path class="st0" d="M210.3,65.5l-1.5,0.9c-0.3-0.5-0.5-0.8-0.9-0.8c-0.1,0-0.4,0-0.5,0.1c-0.1,0.1-0.1,0.3-0.1,0.4
			c0,0.3,0.4,0.6,1.1,0.9c1,0.4,1.6,0.9,2,1.1c0.4,0.4,0.5,0.9,0.5,1.5c0,0.8-0.3,1.4-0.9,2c-0.5,0.5-1.3,0.8-2,0.8
			c-1.4,0-2.4-0.6-2.9-2l1.6-0.8c0.3,0.4,0.4,0.6,0.5,0.8c0.3,0.3,0.5,0.4,0.8,0.4c0.6,0,1-0.3,1-0.9c0-0.4-0.3-0.6-0.8-0.9
			c-0.1-0.1-0.4-0.1-0.5-0.3c-0.3-0.1-0.4-0.1-0.6-0.3c-0.5-0.3-0.9-0.5-1.1-0.8c-0.3-0.4-0.4-0.8-0.4-1.3c0-0.8,0.3-1.3,0.8-1.8
			c0.5-0.5,1.1-0.6,1.8-0.6C209.1,63.9,209.8,64.4,210.3,65.5z"/>
	</g>
</g>
</svg>
